# xmcd CD database file
#
# Track frame offsets:
#	150
#	19035
#	35580
#	62475
#	74757
#	103435
#	115577
#	139452
#	151932
#	168410
#	182590
#	214572
#	239815
#	255717
#	272130
#	288542
#	303492
#
# Disc length: 4308 seconds
#
# Revision: 4
# Processed by: cddbd v1.5.1PL0 Copyright (c) Steve Scherf et al.
# Submitted via: CDex 1.51
#
DISCID=0610d211
DTITLE=Luther Allison - The Motown Years 1972-1976
DYEAR=1996
DGENRE=Blues
TTITLE0=Little Red Rooster
TTITLE1=Ragged And Dirty
TTITLE2=Cut You A-Loose
TTITLE3=Dust My Broom
TTITLE4=Luthers Blues
TTITLE5=Someday Pretty Baby
TTITLE6=Easy Baby
TTITLE7=Part Time Love
TTITLE8=Now You Got It
TTITLE9=K.T.
TTITLE10=Let s Have A Little Talk
TTITLE11=Drivin  Wheel
TTITLE12=Into My Live
TTITLE13=I Can t Make It Thru The Day
TTITLE14=That s What Love Will Make You Do
TTITLE15=Night Life
TTITLE16=Last Night I Lost The Best Friend I Ever Had
EXTD=YEAR: 1996
EXTT0=
EXTT1=
EXTT2=
EXTT3=
EXTT4=
EXTT5=
EXTT6=
EXTT7=
EXTT8=
EXTT9=
EXTT10=
EXTT11=
EXTT12=
EXTT13=(But Oh Those Lonely Nights)
EXTT14=
EXTT15=
EXTT16=LIFE
PLAYORDER=
